<svg id="visual" viewBox="0 0 675 900" width="675" height="900" xmlns="http://www.w3.org/2000/svg" xmlns:xlink="http://www.w3.org/1999/xlink" version="1.1"><path d="M0 145L61 145L61 190L123 190L123 181L184 181L184 109L245 109L245 109L307 109L307 199L368 199L368 136L430 136L430 226L491 226L491 91L552 91L552 91L614 91L614 181L675 181L675 199L675 0L675 0L614 0L614 0L552 0L552 0L491 0L491 0L430 0L430 0L368 0L368 0L307 0L307 0L245 0L245 0L184 0L184 0L123 0L123 0L61 0L61 0L0 0Z" fill="#cccccc"></path><path d="M0 208L61 208L61 244L123 244L123 298L184 298L184 217L245 217L245 253L307 253L307 271L368 271L368 253L430 253L430 343L491 343L491 244L552 244L552 226L614 226L614 298L675 298L675 343L675 197L675 179L614 179L614 89L552 89L552 89L491 89L491 224L430 224L430 134L368 134L368 197L307 197L307 107L245 107L245 107L184 107L184 179L123 179L123 188L61 188L61 143L0 143Z" fill="#bbb9b6"></path><path d="M0 352L61 352L61 343L123 343L123 415L184 415L184 352L245 352L245 352L307 352L307 397L368 397L368 415L430 415L430 496L491 496L491 352L552 352L552 334L614 334L614 442L675 442L675 406L675 341L675 296L614 296L614 224L552 224L552 242L491 242L491 341L430 341L430 251L368 251L368 269L307 269L307 251L245 251L245 215L184 215L184 296L123 296L123 242L61 242L61 206L0 206Z" fill="#aaa6a0"></path><path d="M0 550L61 550L61 496L123 496L123 721L184 721L184 766L245 766L245 739L307 739L307 685L368 685L368 559L430 559L430 631L491 631L491 730L552 730L552 757L614 757L614 676L675 676L675 577L675 404L675 440L614 440L614 332L552 332L552 350L491 350L491 494L430 494L430 413L368 413L368 395L307 395L307 350L245 350L245 350L184 350L184 413L123 413L123 341L61 341L61 350L0 350Z" fill="#99948b"></path><path d="M0 901L61 901L61 901L123 901L123 901L184 901L184 901L245 901L245 901L307 901L307 901L368 901L368 901L430 901L430 901L491 901L491 901L552 901L552 901L614 901L614 901L675 901L675 901L675 575L675 674L614 674L614 755L552 755L552 728L491 728L491 629L430 629L430 557L368 557L368 683L307 683L307 737L245 737L245 764L184 764L184 719L123 719L123 494L61 494L61 548L0 548Z" fill="#888277"></path></svg>