<svg id="visual" viewBox="0 0 675 900" width="675" height="900" xmlns="http://www.w3.org/2000/svg" xmlns:xlink="http://www.w3.org/1999/xlink" version="1.1"><path d="M0 208L61 271L123 235L184 253L245 289L307 262L368 109L430 127L491 370L552 163L614 190L675 253L675 0L614 0L552 0L491 0L430 0L368 0L307 0L245 0L184 0L123 0L61 0L0 0Z" fill="#001122"></path><path d="M0 388L61 478L123 361L184 397L245 406L307 397L368 334L430 334L491 478L552 379L614 361L675 469L675 251L614 188L552 161L491 368L430 125L368 107L307 260L245 287L184 251L123 233L61 269L0 206Z" fill="#002854"></path><path d="M0 451L61 622L123 514L184 523L245 487L307 541L368 505L430 442L491 568L552 487L614 487L675 577L675 467L614 359L552 377L491 476L430 332L368 332L307 395L245 404L184 395L123 359L61 476L0 386Z" fill="#003d8a"></path><path d="M0 784L61 775L123 793L184 775L245 775L307 748L368 811L430 766L491 793L552 766L614 802L675 766L675 575L614 485L552 485L491 566L430 440L368 503L307 539L245 485L184 521L123 512L61 620L0 449Z" fill="#374fbf"></path><path d="M0 901L61 901L123 901L184 901L245 901L307 901L368 901L430 901L491 901L552 901L614 901L675 901L675 764L614 800L552 764L491 791L430 764L368 809L307 746L245 773L184 773L123 791L61 773L0 782Z" fill="#715df2"></path></svg>